#N canvas 16 23 1218 715 12;
#X obj 6 11 loadbang;
#X obj 6 73 s bela_setDigital;
#X floatatom 317 384 5 0 0 0 - - -;
#X obj 1032 46 send~ octave;
#X msg 243 350 60.7;
#X msg 282 351 121.5;
#X msg 329 350 243;
#X msg 364 350 486;
#X msg 397 350 972;
#X floatatom 520 417 5 0 0 0 - - -;
#N canvas 336 217 836 413 voice 0;
#X obj 38 166 tgl 15 0 empty empty empty 17 7 0 10 -262144 -1 -1 0
1;
#X obj 453 176 select 1 0;
#X obj 453 278 line~;
#X msg 453 201 0.5;
#X obj 453 226 pack f f;
#X obj 526 268 pack f f;
#X msg 528 202 0;
#X obj 74 90 receive~ octave;
#X obj 74 198 moses 20;
#X floatatom 74 244 5 0 0 0 - - -;
#X msg 74 221 1;
#X obj 142 198 moses 40;
#X obj 210 199 moses 60;
#X floatatom 142 247 5 0 0 0 - - -;
#X msg 142 224 2;
#X floatatom 210 247 5 0 0 0 - - -;
#X msg 210 224 3;
#X floatatom 281 249 5 0 0 0 - - -;
#X msg 281 226 4;
#X obj 74 119 snapshot~;
#X obj 74 173 i;
#X obj 511 51 inlet;
#X obj 58 350 outlet;
#X obj 107 352 outlet;
#X obj 161 355 outlet;
#X obj 223 352 outlet;
#X obj 413 343 outlet~;
#X obj 282 198 moses 80;
#X floatatom 330 252 5 0 0 0 - - -;
#X msg 330 229 5;
#X obj 101 292 route 1 2 3 4 5;
#X obj 285 354 outlet;
#X obj 44 49 metro 50;
#X obj 44 23 loadbang;
#X obj 74 149 * 200;
#X obj 607 124 loadbang;
#X obj 629 150 1000;
#X obj 578 149 3;
#X connect 0 0 1 0;
#X connect 0 0 19 0;
#X connect 1 0 3 0;
#X connect 1 1 6 0;
#X connect 2 0 26 0;
#X connect 3 0 4 0;
#X connect 4 0 2 0;
#X connect 5 0 2 0;
#X connect 6 0 5 0;
#X connect 7 0 19 0;
#X connect 8 0 10 0;
#X connect 8 1 11 0;
#X connect 9 0 30 0;
#X connect 10 0 9 0;
#X connect 11 0 14 0;
#X connect 11 1 12 0;
#X connect 12 0 16 0;
#X connect 12 1 27 0;
#X connect 13 0 30 0;
#X connect 14 0 13 0;
#X connect 15 0 30 0;
#X connect 16 0 15 0;
#X connect 17 0 30 0;
#X connect 18 0 17 0;
#X connect 19 0 34 0;
#X connect 20 0 8 0;
#X connect 21 0 1 0;
#X connect 27 0 18 0;
#X connect 27 1 29 0;
#X connect 28 0 30 0;
#X connect 29 0 28 0;
#X connect 30 0 22 0;
#X connect 30 1 23 0;
#X connect 30 2 24 0;
#X connect 30 3 25 0;
#X connect 30 4 31 0;
#X connect 32 0 19 0;
#X connect 33 0 32 0;
#X connect 34 0 20 0;
#X connect 35 0 36 0;
#X connect 35 0 37 0;
#X connect 36 0 5 1;
#X connect 37 0 4 1;
#X restore 575 348 pd voice;
#X floatatom 762 418 5 0 0 0 - - -;
#N canvas 277 286 836 413 voice 0;
#X obj 453 176 select 1 0;
#X obj 453 278 line~;
#X msg 453 201 0.5;
#X obj 453 226 pack f f;
#X obj 527 249 pack f f;
#X msg 528 202 0;
#X obj 74 90 receive~ octave;
#X obj 74 198 moses 20;
#X floatatom 74 244 5 0 0 0 - - -;
#X msg 74 221 1;
#X obj 142 198 moses 40;
#X obj 210 199 moses 60;
#X floatatom 142 247 5 0 0 0 - - -;
#X msg 142 224 2;
#X floatatom 210 247 5 0 0 0 - - -;
#X msg 210 224 3;
#X floatatom 281 249 5 0 0 0 - - -;
#X msg 281 226 4;
#X obj 74 119 snapshot~;
#X obj 74 173 i;
#X obj 511 51 inlet;
#X obj 58 350 outlet;
#X obj 107 352 outlet;
#X obj 161 355 outlet;
#X obj 223 352 outlet;
#X obj 413 343 outlet~;
#X obj 282 198 moses 80;
#X floatatom 330 252 5 0 0 0 - - -;
#X msg 330 229 5;
#X obj 101 292 route 1 2 3 4 5;
#X obj 285 354 outlet;
#X obj 59 63 metro 50;
#X obj 59 37 loadbang;
#X obj 74 149 * 200;
#X obj 595 91 loadbang;
#X obj 617 117 1000;
#X obj 566 116 3;
#X connect 0 0 2 0;
#X connect 0 1 5 0;
#X connect 1 0 25 0;
#X connect 2 0 3 0;
#X connect 3 0 1 0;
#X connect 4 0 1 0;
#X connect 5 0 4 0;
#X connect 6 0 18 0;
#X connect 7 0 9 0;
#X connect 7 1 10 0;
#X connect 8 0 29 0;
#X connect 9 0 8 0;
#X connect 10 0 13 0;
#X connect 10 1 11 0;
#X connect 11 0 15 0;
#X connect 11 1 26 0;
#X connect 12 0 29 0;
#X connect 13 0 12 0;
#X connect 14 0 29 0;
#X connect 15 0 14 0;
#X connect 16 0 29 0;
#X connect 17 0 16 0;
#X connect 18 0 33 0;
#X connect 19 0 7 0;
#X connect 20 0 0 0;
#X connect 26 0 17 0;
#X connect 26 1 28 0;
#X connect 27 0 29 0;
#X connect 28 0 27 0;
#X connect 29 0 21 0;
#X connect 29 1 22 0;
#X connect 29 2 23 0;
#X connect 29 3 24 0;
#X connect 29 4 30 0;
#X connect 31 0 18 0;
#X connect 32 0 31 0;
#X connect 33 0 19 0;
#X connect 34 0 35 0;
#X connect 34 0 36 0;
#X connect 35 0 4 1;
#X connect 36 0 3 1;
#X restore 816 347 pd voice;
#X floatatom 370 580 5 0 0 0 - - -;
#N canvas 325 231 836 413 voice 0;
#X obj 453 176 select 1 0;
#X obj 453 278 line~;
#X msg 453 201 0.5;
#X obj 453 226 pack f f;
#X obj 527 249 pack f f;
#X msg 528 202 0;
#X obj 74 90 receive~ octave;
#X obj 74 198 moses 20;
#X floatatom 74 244 5 0 0 0 - - -;
#X msg 74 221 1;
#X obj 142 198 moses 40;
#X obj 210 199 moses 60;
#X floatatom 142 247 5 0 0 0 - - -;
#X msg 142 224 2;
#X floatatom 210 247 5 0 0 0 - - -;
#X msg 210 224 3;
#X floatatom 281 249 5 0 0 0 - - -;
#X msg 281 226 4;
#X obj 74 119 snapshot~;
#X obj 74 173 i;
#X obj 511 51 inlet;
#X obj 58 350 outlet;
#X obj 107 352 outlet;
#X obj 161 355 outlet;
#X obj 223 352 outlet;
#X obj 413 343 outlet~;
#X obj 282 198 moses 80;
#X floatatom 330 252 5 0 0 0 - - -;
#X msg 330 229 5;
#X obj 101 292 route 1 2 3 4 5;
#X obj 285 354 outlet;
#X obj 30 56 metro 50;
#X obj 30 30 loadbang;
#X obj 74 149 * 200;
#X obj 595 91 loadbang;
#X obj 617 117 1000;
#X obj 566 116 3;
#X connect 0 0 2 0;
#X connect 0 1 5 0;
#X connect 1 0 25 0;
#X connect 2 0 3 0;
#X connect 3 0 1 0;
#X connect 4 0 1 0;
#X connect 5 0 4 0;
#X connect 6 0 18 0;
#X connect 7 0 9 0;
#X connect 7 1 10 0;
#X connect 8 0 29 0;
#X connect 9 0 8 0;
#X connect 10 0 13 0;
#X connect 10 1 11 0;
#X connect 11 0 15 0;
#X connect 11 1 26 0;
#X connect 12 0 29 0;
#X connect 13 0 12 0;
#X connect 14 0 29 0;
#X connect 15 0 14 0;
#X connect 16 0 29 0;
#X connect 17 0 16 0;
#X connect 18 0 33 0;
#X connect 19 0 7 0;
#X connect 20 0 0 0;
#X connect 26 0 17 0;
#X connect 26 1 28 0;
#X connect 27 0 29 0;
#X connect 28 0 27 0;
#X connect 29 0 21 0;
#X connect 29 1 22 0;
#X connect 29 2 23 0;
#X connect 29 3 24 0;
#X connect 29 4 30 0;
#X connect 31 0 18 0;
#X connect 32 0 31 0;
#X connect 33 0 19 0;
#X connect 34 0 35 0;
#X connect 34 0 36 0;
#X connect 35 0 4 1;
#X connect 36 0 3 1;
#X restore 424 500 pd voice;
#X obj 532 1004 dac~;
#X obj 150 484 *~;
#X floatatom 111 423 5 0 0 0 - - -;
#N canvas 243 210 968 415 voice 0;
#X obj 453 176 select 1 0;
#X obj 453 278 line~;
#X msg 453 201 0.5;
#X obj 453 226 pack f f;
#X obj 527 249 pack f f;
#X msg 528 202 0;
#X obj 74 90 receive~ octave;
#X obj 74 198 moses 20;
#X floatatom 74 244 5 0 0 0 - - -;
#X msg 74 221 1;
#X obj 142 198 moses 40;
#X obj 210 199 moses 60;
#X floatatom 142 247 5 0 0 0 - - -;
#X msg 142 224 2;
#X floatatom 210 247 5 0 0 0 - - -;
#X msg 210 224 3;
#X floatatom 281 249 5 0 0 0 - - -;
#X msg 281 226 4;
#X obj 74 122 snapshot~;
#X obj 74 173 i;
#X obj 452 42 inlet;
#X obj 58 350 outlet;
#X obj 107 352 outlet;
#X obj 161 355 outlet;
#X obj 223 352 outlet;
#X obj 413 343 outlet~;
#X obj 282 198 moses 80;
#X floatatom 330 252 5 0 0 0 - - -;
#X msg 330 229 5;
#X obj 101 292 route 1 2 3 4 5;
#X obj 285 354 outlet;
#X obj 32 62 metro 50;
#X obj 32 36 loadbang;
#X obj 74 149 * 200;
#X obj 595 91 loadbang;
#X obj 617 117 1000;
#X obj 566 116 3;
#X connect 0 0 2 0;
#X connect 0 1 5 0;
#X connect 1 0 25 0;
#X connect 2 0 3 0;
#X connect 3 0 1 0;
#X connect 4 0 1 0;
#X connect 5 0 4 0;
#X connect 6 0 18 0;
#X connect 7 0 9 0;
#X connect 7 1 10 0;
#X connect 8 0 29 0;
#X connect 9 0 8 0;
#X connect 10 0 13 0;
#X connect 10 1 11 0;
#X connect 11 0 15 0;
#X connect 11 1 26 0;
#X connect 12 0 29 0;
#X connect 13 0 12 0;
#X connect 14 0 29 0;
#X connect 15 0 14 0;
#X connect 16 0 29 0;
#X connect 17 0 16 0;
#X connect 18 0 33 0;
#X connect 19 0 7 0;
#X connect 20 0 0 0;
#X connect 26 0 17 0;
#X connect 26 1 28 0;
#X connect 27 0 29 0;
#X connect 28 0 27 0;
#X connect 29 0 21 0;
#X connect 29 1 22 0;
#X connect 29 2 23 0;
#X connect 29 3 24 0;
#X connect 29 4 30 0;
#X connect 31 0 18 0;
#X connect 32 0 31 0;
#X connect 33 0 19 0;
#X connect 34 0 35 0;
#X connect 34 0 36 0;
#X connect 35 0 4 1;
#X connect 36 0 3 1;
#X restore 154 333 pd voice;
#X msg 435 379 65.5;
#X msg 474 380 131.1;
#X msg 521 379 262.3;
#X msg 613 379 1049.4;
#X msg 676 378 70.8;
#X msg 715 379 141.6;
#X msg 762 378 283.2;
#X msg 812 376 566.5;
#X msg 858 376 1133.1;
#X msg 25 374 56.2;
#X msg 64 375 112.5;
#X msg 111 374 225;
#X msg 146 374 450;
#X msg 179 374 900;
#X msg 284 531 82.6;
#X msg 323 532 165.2;
#X msg 370 531 330.5;
#X msg 416 531 661;
#X msg 449 531 1322.1;
#X obj 1137 45 send~ volume;
#X obj 616 860 receive~ volume;
#X msg 939 377 76.5;
#X msg 978 378 153;
#X msg 1011 378 306;
#X msg 1046 378 612;
#X msg 1079 378 1224;
#X floatatom 990 420 5 0 0 0 - - -;
#N canvas 96 292 836 413 voice 0;
#X obj 453 176 select 1 0;
#X obj 453 278 line~;
#X msg 453 201 0.5;
#X obj 453 226 pack f f;
#X obj 527 249 pack f f;
#X msg 528 202 0;
#X obj 74 90 receive~ octave;
#X obj 74 198 moses 20;
#X floatatom 74 244 5 0 0 0 - - -;
#X msg 74 221 1;
#X obj 142 198 moses 40;
#X obj 210 199 moses 60;
#X floatatom 142 247 5 0 0 0 - - -;
#X msg 142 224 2;
#X floatatom 210 247 5 0 0 0 - - -;
#X msg 210 224 3;
#X floatatom 281 249 5 0 0 0 - - -;
#X msg 281 226 4;
#X obj 74 119 snapshot~;
#X obj 74 173 i;
#X obj 511 51 inlet;
#X obj 58 350 outlet;
#X obj 107 352 outlet;
#X obj 161 355 outlet;
#X obj 223 352 outlet;
#X obj 413 343 outlet~;
#X obj 282 198 moses 80;
#X floatatom 330 252 5 0 0 0 - - -;
#X msg 330 229 5;
#X obj 101 292 route 1 2 3 4 5;
#X obj 285 354 outlet;
#X obj 38 69 metro 50;
#X obj 38 43 loadbang;
#X obj 74 149 * 200;
#X obj 595 91 loadbang;
#X obj 617 117 1000;
#X obj 566 116 3;
#X connect 0 0 2 0;
#X connect 0 1 5 0;
#X connect 1 0 25 0;
#X connect 2 0 3 0;
#X connect 3 0 1 0;
#X connect 4 0 1 0;
#X connect 5 0 4 0;
#X connect 6 0 18 0;
#X connect 7 0 9 0;
#X connect 7 1 10 0;
#X connect 8 0 29 0;
#X connect 9 0 8 0;
#X connect 10 0 13 0;
#X connect 10 1 11 0;
#X connect 11 0 15 0;
#X connect 11 1 26 0;
#X connect 12 0 29 0;
#X connect 13 0 12 0;
#X connect 14 0 29 0;
#X connect 15 0 14 0;
#X connect 16 0 29 0;
#X connect 17 0 16 0;
#X connect 18 0 33 0;
#X connect 19 0 7 0;
#X connect 20 0 0 0;
#X connect 26 0 17 0;
#X connect 26 1 28 0;
#X connect 27 0 29 0;
#X connect 28 0 27 0;
#X connect 29 0 21 0;
#X connect 29 1 22 0;
#X connect 29 2 23 0;
#X connect 29 3 24 0;
#X connect 29 4 30 0;
#X connect 31 0 18 0;
#X connect 32 0 31 0;
#X connect 33 0 19 0;
#X connect 34 0 35 0;
#X connect 34 0 36 0;
#X connect 35 0 4 1;
#X connect 36 0 3 1;
#X restore 1044 340 pd voice;
#N canvas 0 22 450 278 (subpatch) 0;
#X array wave 515 float 3;
#A 0 -0.08 -0.06 -0.04 -0.02 -0.2 -0.192 -0.184 -0.176 -0.168 -0.16
-0.152 -0.144 -0.136 -0.128 -0.12 -0.112 -0.104 -0.096 -0.088 -0.08
-0.072 -0.064 -0.056 -0.048 -0.04 -0.032 -0.024 -0.016 -0.008 -0.7
-0.672 -0.644 -0.616 -0.588 -0.56 -0.532 -0.504 -0.476 -0.448 -0.42
-0.392 -0.364 -0.336 -0.308 -0.28 -0.252 -0.224 -0.196 -0.168 -0.14
-0.112 -0.084 -0.056 -0.028 -0.2 -0.192 -0.184 -0.176 -0.168 -0.16
-0.152 -0.144 -0.136 -0.128 -0.12 -0.112 -0.104 -0.096 -0.088 -0.08
-0.072 -0.064 -0.056 -0.048 -0.04 -0.032 -0.024 -0.016 -0.008 -0.7
-0.672 -0.644 -0.616 -0.588 -0.56 -0.532 -0.504 -0.476 -0.448 -0.42
-0.392 -0.364 -0.336 -0.308 -0.28 -0.252 -0.224 -0.196 -0.168 -0.14
-0.112 -0.084 -0.056 -0.028 -0.9 -0.864 -0.828 -0.792 -0.756 -0.756
-0.36 -0.32 -0.28 -0.24 -0.2 -0.16 -0.12 -0.08 -0.04 -0.6 -0.576 -0.552
-0.528 -0.504 -0.48 -0.456 -0.432 -0.408 -0.384 -0.36 -0.336 -0.312
-0.288 -0.264 -0.24 -0.216 -0.192 -0.168 -0.144 -0.12 -0.096 -0.072
-0.048 -0.024 -0.6 -0.576 -0.552 -0.528 -0.504 -0.48 -0.456 -0.432
-0.408 -0.384 -0.36 -0.336 -0.312 -0.288 -0.264 -0.24 -0.216 -0.192
-0.168 -0.144 -0.12 -0.096 -0.072 -0.048 -0.024 -0.8 -0.768 -0.736
-0.704 -0.672 -0.64 -0.608 -0.576 -0.544 -0.512 -0.48 -0.448 -0.416
-0.384 -0.352 -0.32 -0.288 -0.256 -0.224 -0.192 -0.16 -0.128 -0.096
-0.064 -0.032 -0.9 -0.864 -0.828 -0.792 -0.756 -0.72 -0.684 -0.648
-0.612 -0.576 -0.54 -0.504 -0.468 -0.432 -0.396 -0.36 -0.324 -0.288
-0.252 -0.216 -0.18 -0.144 -0.108 -0.072 -0.036 -0.1 -0.096 -0.092
-0.088 -0.084 -0.08 -0.076 -0.072 -0.068 -0.064 -0.06 -0.056 -0.052
-0.048 -0.044 -0.04 -0.036 -0.032 -0.028 -0.024 -0.02 -0.016 -0.012
-0.008 -0.004 0.3 0.288 0.276 0.264 0.252 0.24 0.228 0.216 0.204 0.192
0.18 0.168 0.156 0.144 0.132 0.12 0.108 0.096 0.084 0.072 0.06 0.048
0.036 0.024 0.012 0 0 0 0 0 0 0 0 0 0 0 0 0 0 0 0 0 0 0 0 0 0 0 0 0
-0.7 -0.672 -0.644 -0.616 -0.588 -0.56 -0.532 -0.504 -0.476 -0.448
-0.42 -0.392 -0.364 -0.336 -0.308 -0.28 -0.252 -0.224 -0.196 -0.168
-0.14 -0.112 -0.084 -0.056 -0.028 -0.2 -0.192 -0.184 -0.176 -0.168
-0.16 -0.152 -0.144 -0.136 -0.128 -0.12 -0.112 -0.104 -0.096 -0.088
-0.08 -0.072 -0.064 -0.056 -0.048 -0.04 -0.032 -0.024 -0.016 -0.008
-0.6 -0.576 -0.552 -0.528 -0.504 -0.48 -0.456 -0.432 -0.408 -0.384
-0.36 -0.336 -0.312 -0.288 -0.264 -0.24 -0.216 -0.192 -0.168 -0.144
-0.12 -0.096 -0.072 -0.048 -0.024 -0.7 -0.672 -0.644 -0.616 -0.588
-0.56 -0.532 -0.504 -0.476 -0.448 -0.42 -0.392 -0.364 -0.336 -0.308
-0.28 -0.252 -0.224 -0.196 -0.168 -0.14 -0.112 -0.084 -0.056 -0.028
-0.6 -0.576 -0.552 -0.528 -0.504 -0.48 -0.456 -0.432 -0.408 -0.384
-0.36 -0.336 -0.312 -0.288 -0.264 -0.24 -0.216 -0.192 -0.168 -0.144
-0.12 -0.096 -0.072 -0.048 -0.024 0.1 0.096 0.092 0.088 0.084 0.08
0.076 0.072 0.068 0.064 0.06 0.056 0.052 0.048 0.044 0.04 0.036 0.032
0.028 0.024 0.02 0.016 0.012 0.008 0.004 0.3 0.288 0.276 0.264 0.252
0.24 0.228 0.216 0.204 0.192 0.18 0.168 0.156 0.144 0.132 0.12 0.108
0.096 0.084 0.072 0.06 0.048 0.036 0.024 0.012 0.6 0.576 0.552 0.528
0.504 0.48 0.456 0.432 0.408 0.384 0.36 0.336 0.312 0.288 0.264 0.24
0.216 0.192 0.168 0.144 0.12 0.096 0.072 0.048 0.024 -0.5 -0.48 -0.46
-0.44 -0.42 -0.4 -0.38 -0.36 -0.34 -0.32 -0.3 -0.28 -0.26 -0.24 -0.22
-0.2 -0.18 -0.16 -0.14 -0.12 -0.1;
#X coords 0 1 515 -1 200 140 1 0 0;
#X restore 12 627 graph;
#X obj 113 782 loadbang;
#X obj 755 46 +~ 0.2;
#X obj 113 815 tgl 15 0 empty empty empty 17 7 0 10 -262144 -1 -1 1
1;
#X floatatom 112 952 5 0 0 0 - - -;
#X obj 219 857 f;
#X floatatom 219 905 5 0 0 0 - - -;
#X obj 262 854 + 1;
#X obj 176 1019 tabwrite wave;
#X obj 112 881 random 20;
#X obj 245 1352 bng 15 250 50 0 empty empty empty 17 7 0 10 -262144
-1 -1;
#X obj 112 978 f;
#X obj 38 904 * 0.1;
#X obj 38 928 - 1;
#X floatatom 38 953 5 0 0 0 - - -;
#X obj 38 881 random 20;
#X obj 38 977 f;
#X obj 181 985 f;
#X obj 39 1077 line;
#X obj 219 881 mod 515;
#X obj 194 819 metro 20;
#X floatatom 606 584 5 0 0 0 - - -;
#N canvas 145 291 836 413 voice 0;
#X obj 453 278 line~;
#X msg 453 201 0.5;
#X obj 453 226 pack f f;
#X obj 527 249 pack f f;
#X msg 528 202 0;
#X obj 74 90 receive~ octave;
#X obj 74 198 moses 20;
#X floatatom 74 244 5 0 0 0 - - -;
#X msg 74 221 1;
#X obj 142 198 moses 40;
#X obj 210 199 moses 60;
#X floatatom 142 247 5 0 0 0 - - -;
#X msg 142 224 2;
#X floatatom 210 247 5 0 0 0 - - -;
#X msg 210 224 3;
#X floatatom 281 249 5 0 0 0 - - -;
#X msg 281 226 4;
#X obj 74 119 snapshot~;
#X obj 74 173 i;
#X obj 511 51 inlet;
#X obj 58 350 outlet;
#X obj 107 352 outlet;
#X obj 161 355 outlet;
#X obj 223 352 outlet;
#X obj 413 343 outlet~;
#X obj 282 198 moses 80;
#X floatatom 330 252 5 0 0 0 - - -;
#X msg 330 229 5;
#X obj 101 292 route 1 2 3 4 5;
#X obj 285 354 outlet;
#X obj 453 176 select 1 0;
#X obj 41 57 metro 50;
#X obj 41 31 loadbang;
#X obj 74 149 * 200;
#X obj 595 91 loadbang;
#X obj 617 117 1000;
#X obj 566 116 3;
#X connect 0 0 24 0;
#X connect 1 0 2 0;
#X connect 2 0 0 0;
#X connect 3 0 0 0;
#X connect 4 0 3 0;
#X connect 5 0 17 0;
#X connect 6 0 8 0;
#X connect 6 1 9 0;
#X connect 7 0 28 0;
#X connect 8 0 7 0;
#X connect 9 0 12 0;
#X connect 9 1 10 0;
#X connect 10 0 14 0;
#X connect 10 1 25 0;
#X connect 11 0 28 0;
#X connect 12 0 11 0;
#X connect 13 0 28 0;
#X connect 14 0 13 0;
#X connect 15 0 28 0;
#X connect 16 0 15 0;
#X connect 17 0 33 0;
#X connect 18 0 6 0;
#X connect 19 0 30 0;
#X connect 25 0 16 0;
#X connect 25 1 27 0;
#X connect 26 0 28 0;
#X connect 27 0 26 0;
#X connect 28 0 20 0;
#X connect 28 1 21 0;
#X connect 28 2 22 0;
#X connect 28 3 23 0;
#X connect 28 4 29 0;
#X connect 30 0 1 0;
#X connect 30 1 4 0;
#X connect 31 0 17 0;
#X connect 32 0 31 0;
#X connect 33 0 18 0;
#X connect 34 0 35 0;
#X connect 34 0 36 0;
#X connect 35 0 3 1;
#X connect 36 0 2 1;
#X restore 661 505 pd voice;
#X floatatom 881 583 5 0 0 0 - - -;
#N canvas 0 309 836 413 voice 0;
#X obj 453 278 line~;
#X msg 453 201 0.5;
#X obj 453 226 pack f f;
#X obj 527 249 pack f f;
#X msg 528 202 0;
#X obj 74 90 receive~ octave;
#X obj 74 198 moses 20;
#X floatatom 74 244 5 0 0 0 - - -;
#X msg 74 221 1;
#X obj 142 198 moses 40;
#X obj 210 199 moses 60;
#X floatatom 142 247 5 0 0 0 - - -;
#X msg 142 224 2;
#X floatatom 210 247 5 0 0 0 - - -;
#X msg 210 224 3;
#X floatatom 281 249 5 0 0 0 - - -;
#X msg 281 226 4;
#X obj 74 119 snapshot~;
#X obj 74 173 i;
#X obj 511 51 inlet;
#X obj 58 350 outlet;
#X obj 107 352 outlet;
#X obj 161 355 outlet;
#X obj 223 352 outlet;
#X obj 413 343 outlet~;
#X obj 282 198 moses 80;
#X floatatom 330 252 5 0 0 0 - - -;
#X msg 330 229 5;
#X obj 101 292 route 1 2 3 4 5;
#X obj 285 354 outlet;
#X obj 453 176 select 1 0;
#X obj 58 64 metro 50;
#X obj 58 38 loadbang;
#X obj 74 149 * 200;
#X obj 595 91 loadbang;
#X obj 617 117 1000;
#X obj 566 116 3;
#X connect 0 0 24 0;
#X connect 1 0 2 0;
#X connect 2 0 0 0;
#X connect 3 0 0 0;
#X connect 4 0 3 0;
#X connect 5 0 17 0;
#X connect 6 0 8 0;
#X connect 6 1 9 0;
#X connect 7 0 28 0;
#X connect 8 0 7 0;
#X connect 9 0 12 0;
#X connect 9 1 10 0;
#X connect 10 0 14 0;
#X connect 10 1 25 0;
#X connect 11 0 28 0;
#X connect 12 0 11 0;
#X connect 13 0 28 0;
#X connect 14 0 13 0;
#X connect 15 0 28 0;
#X connect 16 0 15 0;
#X connect 17 0 33 0;
#X connect 18 0 6 0;
#X connect 19 0 30 0;
#X connect 25 0 16 0;
#X connect 25 1 27 0;
#X connect 26 0 28 0;
#X connect 27 0 26 0;
#X connect 28 0 20 0;
#X connect 28 1 21 0;
#X connect 28 2 22 0;
#X connect 28 3 23 0;
#X connect 28 4 29 0;
#X connect 30 0 1 0;
#X connect 30 1 4 0;
#X connect 31 0 17 0;
#X connect 32 0 31 0;
#X connect 33 0 18 0;
#X connect 34 0 35 0;
#X connect 34 0 36 0;
#X connect 35 0 3 1;
#X connect 36 0 2 1;
#X restore 935 503 pd voice;
#X floatatom 1029 630 5 0 0 0 - - -;
#N canvas 0 309 836 413 voice 0;
#X obj 453 176 select 1 0;
#X obj 453 278 line~;
#X msg 453 201 0.5;
#X obj 453 226 pack f f;
#X obj 527 249 pack f f;
#X msg 528 202 0;
#X obj 74 90 receive~ octave;
#X obj 74 198 moses 20;
#X floatatom 74 244 5 0 0 0 - - -;
#X msg 74 221 1;
#X obj 142 198 moses 40;
#X obj 210 199 moses 60;
#X floatatom 142 247 5 0 0 0 - - -;
#X msg 142 224 2;
#X floatatom 210 247 5 0 0 0 - - -;
#X msg 210 224 3;
#X floatatom 281 249 5 0 0 0 - - -;
#X msg 281 226 4;
#X obj 74 119 snapshot~;
#X obj 74 173 i;
#X obj 511 51 inlet;
#X obj 58 350 outlet;
#X obj 107 352 outlet;
#X obj 161 355 outlet;
#X obj 223 352 outlet;
#X obj 413 343 outlet~;
#X obj 282 198 moses 80;
#X floatatom 330 252 5 0 0 0 - - -;
#X msg 330 229 5;
#X obj 101 292 route 1 2 3 4 5;
#X obj 285 354 outlet;
#X obj 42 59 metro 50;
#X obj 42 33 loadbang;
#X obj 74 149 * 200;
#X obj 595 91 loadbang;
#X obj 617 117 1000;
#X obj 566 116 3;
#X connect 0 0 2 0;
#X connect 0 1 5 0;
#X connect 1 0 25 0;
#X connect 2 0 3 0;
#X connect 3 0 1 0;
#X connect 4 0 1 0;
#X connect 5 0 4 0;
#X connect 6 0 18 0;
#X connect 7 0 9 0;
#X connect 7 1 10 0;
#X connect 8 0 29 0;
#X connect 9 0 8 0;
#X connect 10 0 13 0;
#X connect 10 1 11 0;
#X connect 11 0 15 0;
#X connect 11 1 26 0;
#X connect 12 0 29 0;
#X connect 13 0 12 0;
#X connect 14 0 29 0;
#X connect 15 0 14 0;
#X connect 16 0 29 0;
#X connect 17 0 16 0;
#X connect 18 0 33 0;
#X connect 19 0 7 0;
#X connect 20 0 0 0;
#X connect 26 0 17 0;
#X connect 26 1 28 0;
#X connect 27 0 29 0;
#X connect 28 0 27 0;
#X connect 29 0 21 0;
#X connect 29 1 22 0;
#X connect 29 2 23 0;
#X connect 29 3 24 0;
#X connect 29 4 30 0;
#X connect 31 0 18 0;
#X connect 32 0 31 0;
#X connect 33 0 19 0;
#X connect 34 0 35 0;
#X connect 34 0 36 0;
#X connect 35 0 4 1;
#X connect 36 0 3 1;
#X restore 1119 557 pd voice;
#X msg 532 536 89.2;
#X msg 795 534 96.4;
#X msg 969 589 104.1;
#X msg 571 537 178.5;
#X msg 618 536 357;
#X msg 653 536 714;
#X msg 686 536 1428.3;
#X msg 834 535 192.8;
#X msg 881 534 385.6;
#X msg 927 534 771.3;
#X msg 973 534 1542.6;
#X msg 1018 589 208.2;
#X msg 1065 588 416.4;
#X msg 1111 588 832.9;
#X msg 1157 587 1665.9;
#X msg 6 34 in 11 \, in 12 \, in 13 \, in 14 \, in 15 \, in 16 \, in
17 \, in 18 \, in 19 \, in 20;
#X obj 113 849 metro 500;
#X obj 652 21 adc~ 3;
#N canvas 315 262 836 413 voice 0;
#X obj 453 176 select 1 0;
#X obj 453 278 line~;
#X msg 453 201 0.5;
#X obj 453 226 pack f f;
#X obj 529 268 pack f f;
#X msg 528 202 0;
#X obj 74 90 receive~ octave;
#X obj 74 198 moses 20;
#X floatatom 74 244 5 0 0 0 - - -;
#X msg 74 221 1;
#X obj 142 198 moses 40;
#X obj 210 199 moses 60;
#X floatatom 142 247 5 0 0 0 - - -;
#X msg 142 224 2;
#X floatatom 210 247 5 0 0 0 - - -;
#X msg 210 224 3;
#X floatatom 281 249 5 0 0 0 - - -;
#X msg 281 226 4;
#X obj 74 122 snapshot~;
#X obj 74 173 i;
#X obj 511 51 inlet;
#X obj 58 350 outlet;
#X obj 107 352 outlet;
#X obj 161 355 outlet;
#X obj 223 352 outlet;
#X obj 413 343 outlet~;
#X obj 282 198 moses 80;
#X floatatom 330 252 5 0 0 0 - - -;
#X msg 330 229 5;
#X obj 101 292 route 1 2 3 4 5;
#X obj 285 354 outlet;
#X obj 55 58 metro 50;
#X obj 55 32 loadbang;
#X obj 74 149 * 200;
#X obj 595 91 loadbang;
#X obj 617 117 1000;
#X obj 566 116 3;
#X connect 0 0 2 0;
#X connect 0 1 5 0;
#X connect 1 0 25 0;
#X connect 2 0 3 0;
#X connect 3 0 1 0;
#X connect 4 0 1 0;
#X connect 5 0 4 0;
#X connect 6 0 18 0;
#X connect 7 0 9 0;
#X connect 7 1 10 0;
#X connect 8 0 29 0;
#X connect 9 0 8 0;
#X connect 10 0 13 0;
#X connect 10 1 11 0;
#X connect 11 0 15 0;
#X connect 11 1 26 0;
#X connect 12 0 29 0;
#X connect 13 0 12 0;
#X connect 14 0 29 0;
#X connect 15 0 14 0;
#X connect 16 0 29 0;
#X connect 17 0 16 0;
#X connect 18 0 33 0;
#X connect 19 0 7 0;
#X connect 20 0 0 0;
#X connect 26 0 17 0;
#X connect 26 1 28 0;
#X connect 27 0 29 0;
#X connect 28 0 27 0;
#X connect 29 0 21 0;
#X connect 29 1 22 0;
#X connect 29 2 23 0;
#X connect 29 3 24 0;
#X connect 29 4 30 0;
#X connect 31 0 18 0;
#X connect 32 0 31 0;
#X connect 33 0 19 0;
#X connect 34 0 35 0;
#X connect 34 0 36 0;
#X connect 35 0 4 1;
#X connect 36 0 3 1;
#X restore 341 308 pd voice;
#X obj 535 897 *~;
#N canvas 189 156 1087 715 osc 0;
#X obj 248 678 outlet~;
#X obj 26 269 tabosc4~ wave;
#X obj 219 23 inlet;
#X obj 216 210 +~;
#X obj 307 114 osc~ 5;
#X obj 352 265 *~ 1.0045;
#X obj 307 14 loadbang;
#X obj 307 38 random 1000;
#X obj 307 86 + 1;
#X obj 307 62 * 0.005;
#X obj 255 149 *~ 1;
#X obj 232 112 * 0.015;
#X obj 354 592 vcf~;
#X obj 352 295 tabosc4~ wave2;
#X obj 203 261 metro 50;
#X obj 352 319 *~ 0.6;
#X obj 173 677 outlet~;
#X obj 31 596 vcf~;
#X obj 87 488 +~ 1;
#X obj 87 512 *~ 0.5;
#X obj 87 536 *~ 1500;
#X obj 87 342 snapshot~;
#X obj 87 415 pack f 100;
#X obj 87 439 line;
#X obj 87 464 osc~;
#X obj 87 366 * 50;
#X obj 87 390 - 10;
#X obj 198 408 snapshot~;
#X obj 198 432 * 10000;
#X obj 175 535 line;
#X obj 175 511 pack f 100;
#X obj 198 384 receive~ cutoff;
#X obj 267 554 line;
#X obj 267 530 pack f 100;
#X obj 86 317 receive~ lfo;
#X obj 26 294 *~ 0.6;
#X obj 418 423 snapshot~;
#X obj 418 399 receive~ q;
#X obj 417 526 line;
#X obj 417 502 pack f 100;
#X obj 418 453 * 30;
#X obj 418 478 + 0.1;
#X obj 198 484 + 400;
#X obj 555 435 snapshot~;
#X obj 555 459 * 10000;
#X obj 555 510 line;
#X obj 555 486 pack f 100;
#X obj 252 632 lop~;
#X obj 85 569 +~ 20;
#X obj 555 411 receive~ lop;
#X connect 1 0 35 0;
#X connect 2 0 3 0;
#X connect 2 0 11 0;
#X connect 3 0 1 0;
#X connect 3 0 5 0;
#X connect 4 0 10 0;
#X connect 5 0 13 0;
#X connect 6 0 7 0;
#X connect 6 0 14 0;
#X connect 7 0 9 0;
#X connect 8 0 4 0;
#X connect 9 0 8 0;
#X connect 10 0 3 1;
#X connect 11 0 10 1;
#X connect 12 0 47 0;
#X connect 13 0 15 0;
#X connect 14 0 21 0;
#X connect 14 0 27 0;
#X connect 14 0 36 0;
#X connect 14 0 43 0;
#X connect 14 0 7 0;
#X connect 15 0 12 0;
#X connect 17 0 47 0;
#X connect 18 0 19 0;
#X connect 19 0 20 0;
#X connect 20 0 48 0;
#X connect 21 0 25 0;
#X connect 22 0 23 0;
#X connect 23 0 24 0;
#X connect 24 0 18 0;
#X connect 25 0 26 0;
#X connect 26 0 22 0;
#X connect 27 0 28 0;
#X connect 28 0 33 0;
#X connect 28 0 42 0;
#X connect 29 0 20 1;
#X connect 30 0 29 0;
#X connect 31 0 27 0;
#X connect 33 0 32 0;
#X connect 34 0 21 0;
#X connect 35 0 17 0;
#X connect 36 0 40 0;
#X connect 37 0 36 0;
#X connect 38 0 17 2;
#X connect 38 0 12 2;
#X connect 39 0 38 0;
#X connect 40 0 41 0;
#X connect 41 0 39 0;
#X connect 42 0 30 0;
#X connect 43 0 44 0;
#X connect 44 0 46 0;
#X connect 45 0 47 1;
#X connect 46 0 45 0;
#X connect 47 0 0 0;
#X connect 47 0 16 0;
#X connect 48 0 17 1;
#X connect 48 0 12 1;
#X connect 49 0 43 0;
#X restore 111 449 pd osc;
#X obj 312 158 r sensorValue;
#X obj 312 269 change;
#X obj 366 269 change;
#X obj 418 268 change;
#X obj 473 270 change;
#X obj 527 270 change;
#X obj 579 269 change;
#X obj 473 246 > 100;
#X obj 527 246 > 100;
#X obj 579 245 > 100;
#X obj 637 265 change;
#X obj 691 265 change;
#X obj 743 264 change;
#X obj 637 241 > 100;
#X obj 691 241 > 100;
#X obj 743 240 > 100;
#X obj 312 182 unpack f f f f f f f f f f f;
#X obj 1134 21 adc~ 8;
#X obj 1033 22 adc~ 7;
#X obj 755 22 adc~ 4;
#X obj 652 46 send~ cutoff;
#X obj 312 245 > 20;
#X obj 366 245 > 20;
#X obj 418 244 > 20;
#X msg 568 379 524.7;
#X obj 112 928 - 1;
#X msg 39 1045 \$1 \, \$2 500;
#X obj 112 904 * 0.1;
#X obj 755 71 send~ lfo;
#X obj 816 834 loadbang;
#X obj 816 867 tgl 15 0 empty empty empty 17 7 0 10 -262144 -1 -1 1
1;
#X floatatom 815 1004 5 0 0 0 - - -;
#X obj 922 909 f;
#X floatatom 922 957 5 0 0 0 - - -;
#X obj 965 906 + 1;
#X obj 815 933 random 20;
#X obj 815 1030 f;
#X obj 741 956 * 0.1;
#X obj 741 980 - 1;
#X floatatom 741 1005 5 0 0 0 - - -;
#X obj 741 933 random 20;
#X obj 741 1029 f;
#X obj 884 1037 f;
#X obj 742 1129 line;
#X obj 922 933 mod 515;
#X obj 897 871 metro 20;
#X obj 816 901 metro 500;
#X obj 815 980 - 1;
#X msg 742 1097 \$1 \, \$2 500;
#X obj 815 956 * 0.1;
#X obj 879 1071 tabwrite wave2;
#N canvas 0 22 450 278 (subpatch) 0;
#X array wave2 515 float 3;
#A 0 0.016 0.012 0.008 0.004 0.8 0.768 0.736 0.704 0.672 0.64 0.608
0.576 0.544 0.512 0.48 0.448 0.416 0.384 0.352 0.32 0.288 0.256 0.224
0.192 0.16 0.128 0.096 0.064 0.032 0.9 0.864 0.828 0.792 0.756 0.72
0.684 0.648 0.612 0.576 0.54 0.504 0.468 0.432 0.396 0.36 0.324 0.288
0.252 0.216 0.18 0.144 0.108 0.072 0.036 0.6 0.576 0.552 0.528 0.504
0.48 0.456 0.432 0.408 0.384 0.36 0.336 0.312 0.288 0.264 0.24 0.216
0.192 0.168 0.144 0.12 0.096 0.072 0.048 0.024 -0.3 -0.288 -0.276 -0.264
-0.252 -0.24 -0.228 -0.216 -0.204 -0.192 -0.18 -0.168 -0.156 -0.144
-0.132 -0.12 -0.108 -0.096 -0.084 -0.072 -0.06 -0.048 -0.036 -0.024
-0.012 -0.8 -0.768 -0.736 -0.704 -0.672 -0.672 0.288 0.256 0.224 0.192
0.16 0.128 0.096 0.064 0.032 0.3 0.288 0.276 0.264 0.252 0.24 0.228
0.216 0.204 0.192 0.18 0.168 0.156 0.144 0.132 0.12 0.108 0.096 0.084
0.072 0.06 0.048 0.036 0.024 0.012 0.4 0.384 0.368 0.352 0.336 0.32
0.304 0.288 0.272 0.256 0.24 0.224 0.208 0.192 0.176 0.16 0.144 0.128
0.112 0.096 0.08 0.064 0.048 0.032 0.016 0.8 0.768 0.736 0.704 0.672
0.64 0.608 0.576 0.544 0.512 0.48 0.448 0.416 0.384 0.352 0.32 0.288
0.256 0.224 0.192 0.16 0.128 0.096 0.064 0.032 -0.3 -0.288 -0.276 -0.264
-0.252 -0.24 -0.228 -0.216 -0.204 -0.192 -0.18 -0.168 -0.156 -0.144
-0.132 -0.12 -0.108 -0.096 -0.084 -0.072 -0.06 -0.048 -0.036 -0.024
-0.012 0.5 0.48 0.46 0.44 0.42 0.4 0.38 0.36 0.34 0.32 0.3 0.28 0.26
0.24 0.22 0.2 0.18 0.16 0.14 0.12 0.1 0.08 0.06 0.04 0.02 -0.1 -0.096
-0.092 -0.088 -0.084 -0.08 -0.076 -0.072 -0.068 -0.064 -0.06 -0.056
-0.052 -0.048 -0.044 -0.04 -0.036 -0.032 -0.028 -0.024 -0.02 -0.016
-0.012 -0.008 -0.004 0.6 0.576 0.552 0.528 0.504 0.48 0.456 0.432 0.408
0.384 0.36 0.336 0.312 0.288 0.264 0.24 0.216 0.192 0.168 0.144 0.12
0.096 0.072 0.048 0.024 -0.6 -0.576 -0.552 -0.528 -0.504 -0.48 -0.456
-0.432 -0.408 -0.384 -0.36 -0.336 -0.312 -0.288 -0.264 -0.24 -0.216
-0.192 -0.168 -0.144 -0.12 -0.096 -0.072 -0.048 -0.024 -0.1 -0.096
-0.092 -0.088 -0.084 -0.08 -0.076 -0.072 -0.068 -0.064 -0.06 -0.056
-0.052 -0.048 -0.044 -0.04 -0.036 -0.032 -0.028 -0.024 -0.02 -0.016
-0.012 -0.008 -0.004 -0.3 -0.288 -0.276 -0.264 -0.252 -0.24 -0.228
-0.216 -0.204 -0.192 -0.18 -0.168 -0.156 -0.144 -0.132 -0.12 -0.108
-0.096 -0.084 -0.072 -0.06 -0.048 -0.036 -0.024 -0.012 -0.1 -0.096
-0.092 -0.088 -0.084 -0.08 -0.076 -0.072 -0.068 -0.064 -0.06 -0.056
-0.052 -0.048 -0.044 -0.04 -0.036 -0.032 -0.028 -0.024 -0.02 -0.016
-0.012 -0.008 -0.004 0.1 0.096 0.092 0.088 0.084 0.08 0.076 0.072 0.068
0.064 0.06 0.056 0.052 0.048 0.044 0.04 0.036 0.032 0.028 0.024 0.02
0.016 0.012 0.008 0.004 0 0 0 0 0 0 0 0 0 0 0 0 0 0 0 0 0 0 0 0 0 0
0 0 0 0.4 0.384 0.368 0.352 0.336 0.32 0.304 0.288 0.272 0.256 0.24
0.224 0.208 0.192 0.176 0.16 0.144 0.128 0.112 0.096 0.08 0.064 0.048
0.032 0.016 -1 -0.96 -0.92 -0.88 -0.84 -0.8 -0.76 -0.72 -0.68 -0.64
-0.6 -0.56 -0.52 -0.48 -0.44 -0.4 -0.36 -0.32 -0.28 -0.24 -0.2 -0.16
-0.12 -0.08 -0.04 0.1 0.096 0.092 0.088 0.084 0.08 0.076 0.072 0.068
0.064 0.06 0.056 0.052 0.048 0.044 0.04 0.036 0.032 0.028 0.024 0.02
;
#X coords 0 1 515 -1 200 140 1 0 0;
#X restore 975 791 graph;
#X obj 111 485 *~;
#X obj 475 901 *~;
#X obj 356 446 *~;
#X obj 317 447 *~;
#X obj 558 469 *~;
#X obj 519 470 *~;
#X obj 800 473 *~;
#X obj 761 474 *~;
#X obj 1029 473 *~;
#X obj 990 474 *~;
#X obj 410 646 *~;
#X obj 371 647 *~;
#X obj 641 653 *~;
#X obj 603 654 *~;
#X obj 918 643 *~;
#X obj 879 644 *~;
#X obj 1066 683 *~;
#X obj 1027 684 *~;
#X obj 838 20 adc~ 5;
#X obj 838 44 send~ q;
#X obj 931 21 adc~ 6;
#X obj 931 45 send~ lop;
#N canvas 189 63 1087 715 osc 0;
#X obj 248 678 outlet~;
#X obj 26 269 tabosc4~ wave;
#X obj 219 23 inlet;
#X obj 216 210 +~;
#X obj 307 114 osc~ 5;
#X obj 352 265 *~ 1.0045;
#X obj 307 14 loadbang;
#X obj 307 38 random 1000;
#X obj 307 86 + 1;
#X obj 307 62 * 0.005;
#X obj 255 149 *~ 1;
#X obj 232 112 * 0.015;
#X obj 354 592 vcf~;
#X obj 352 295 tabosc4~ wave2;
#X obj 203 261 metro 50;
#X obj 352 319 *~ 0.6;
#X obj 173 677 outlet~;
#X obj 31 596 vcf~;
#X obj 87 488 +~ 1;
#X obj 87 512 *~ 0.5;
#X obj 87 536 *~ 1500;
#X obj 87 342 snapshot~;
#X obj 87 415 pack f 100;
#X obj 87 439 line;
#X obj 87 464 osc~;
#X obj 87 366 * 50;
#X obj 87 390 - 10;
#X obj 198 408 snapshot~;
#X obj 198 432 * 10000;
#X obj 175 535 line;
#X obj 175 511 pack f 100;
#X obj 198 384 receive~ cutoff;
#X obj 267 554 line;
#X obj 267 530 pack f 100;
#X obj 86 317 receive~ lfo;
#X obj 26 294 *~ 0.6;
#X obj 418 423 snapshot~;
#X obj 418 399 receive~ q;
#X obj 417 526 line;
#X obj 417 502 pack f 100;
#X obj 418 453 * 30;
#X obj 418 478 + 0.1;
#X obj 198 484 + 400;
#X obj 555 435 snapshot~;
#X obj 555 459 * 10000;
#X obj 555 510 line;
#X obj 555 486 pack f 100;
#X obj 252 632 lop~;
#X obj 85 569 +~ 20;
#X obj 555 411 receive~ lop;
#X connect 1 0 35 0;
#X connect 2 0 3 0;
#X connect 2 0 11 0;
#X connect 3 0 1 0;
#X connect 3 0 5 0;
#X connect 4 0 10 0;
#X connect 5 0 13 0;
#X connect 6 0 7 0;
#X connect 6 0 14 0;
#X connect 7 0 9 0;
#X connect 8 0 4 0;
#X connect 9 0 8 0;
#X connect 10 0 3 1;
#X connect 11 0 10 1;
#X connect 12 0 47 0;
#X connect 13 0 15 0;
#X connect 14 0 21 0;
#X connect 14 0 27 0;
#X connect 14 0 36 0;
#X connect 14 0 43 0;
#X connect 14 0 7 0;
#X connect 15 0 12 0;
#X connect 17 0 47 0;
#X connect 18 0 19 0;
#X connect 19 0 20 0;
#X connect 20 0 48 0;
#X connect 21 0 25 0;
#X connect 22 0 23 0;
#X connect 23 0 24 0;
#X connect 24 0 18 0;
#X connect 25 0 26 0;
#X connect 26 0 22 0;
#X connect 27 0 28 0;
#X connect 28 0 33 0;
#X connect 28 0 42 0;
#X connect 29 0 20 1;
#X connect 30 0 29 0;
#X connect 31 0 27 0;
#X connect 33 0 32 0;
#X connect 34 0 21 0;
#X connect 35 0 17 0;
#X connect 36 0 40 0;
#X connect 37 0 36 0;
#X connect 38 0 17 2;
#X connect 38 0 12 2;
#X connect 39 0 38 0;
#X connect 40 0 41 0;
#X connect 41 0 39 0;
#X connect 42 0 30 0;
#X connect 43 0 44 0;
#X connect 44 0 46 0;
#X connect 45 0 47 1;
#X connect 46 0 45 0;
#X connect 47 0 0 0;
#X connect 47 0 16 0;
#X connect 48 0 17 1;
#X connect 48 0 12 1;
#X connect 49 0 43 0;
#X restore 316 409 pd osc;
#N canvas 189 156 1087 715 osc 0;
#X obj 248 678 outlet~;
#X obj 26 269 tabosc4~ wave;
#X obj 219 23 inlet;
#X obj 216 210 +~;
#X obj 307 114 osc~ 5;
#X obj 352 265 *~ 1.0045;
#X obj 307 14 loadbang;
#X obj 307 38 random 1000;
#X obj 307 86 + 1;
#X obj 307 62 * 0.005;
#X obj 255 149 *~ 1;
#X obj 232 112 * 0.015;
#X obj 354 592 vcf~;
#X obj 352 295 tabosc4~ wave2;
#X obj 203 261 metro 50;
#X obj 352 319 *~ 0.6;
#X obj 173 677 outlet~;
#X obj 31 596 vcf~;
#X obj 87 488 +~ 1;
#X obj 87 512 *~ 0.5;
#X obj 87 536 *~ 1500;
#X obj 87 342 snapshot~;
#X obj 87 415 pack f 100;
#X obj 87 439 line;
#X obj 87 464 osc~;
#X obj 87 366 * 50;
#X obj 87 390 - 10;
#X obj 198 408 snapshot~;
#X obj 198 432 * 10000;
#X obj 175 535 line;
#X obj 175 511 pack f 100;
#X obj 198 384 receive~ cutoff;
#X obj 267 554 line;
#X obj 267 530 pack f 100;
#X obj 86 317 receive~ lfo;
#X obj 26 294 *~ 0.6;
#X obj 418 423 snapshot~;
#X obj 418 399 receive~ q;
#X obj 417 526 line;
#X obj 417 502 pack f 100;
#X obj 418 453 * 30;
#X obj 418 478 + 0.1;
#X obj 198 484 + 400;
#X obj 555 435 snapshot~;
#X obj 555 459 * 10000;
#X obj 555 510 line;
#X obj 555 486 pack f 100;
#X obj 252 632 lop~;
#X obj 85 569 +~ 20;
#X obj 555 411 receive~ lop;
#X connect 1 0 35 0;
#X connect 2 0 3 0;
#X connect 2 0 11 0;
#X connect 3 0 1 0;
#X connect 3 0 5 0;
#X connect 4 0 10 0;
#X connect 5 0 13 0;
#X connect 6 0 7 0;
#X connect 6 0 14 0;
#X connect 7 0 9 0;
#X connect 8 0 4 0;
#X connect 9 0 8 0;
#X connect 10 0 3 1;
#X connect 11 0 10 1;
#X connect 12 0 47 0;
#X connect 13 0 15 0;
#X connect 14 0 21 0;
#X connect 14 0 27 0;
#X connect 14 0 36 0;
#X connect 14 0 43 0;
#X connect 14 0 7 0;
#X connect 15 0 12 0;
#X connect 17 0 47 0;
#X connect 18 0 19 0;
#X connect 19 0 20 0;
#X connect 20 0 48 0;
#X connect 21 0 25 0;
#X connect 22 0 23 0;
#X connect 23 0 24 0;
#X connect 24 0 18 0;
#X connect 25 0 26 0;
#X connect 26 0 22 0;
#X connect 27 0 28 0;
#X connect 28 0 33 0;
#X connect 28 0 42 0;
#X connect 29 0 20 1;
#X connect 30 0 29 0;
#X connect 31 0 27 0;
#X connect 33 0 32 0;
#X connect 34 0 21 0;
#X connect 35 0 17 0;
#X connect 36 0 40 0;
#X connect 37 0 36 0;
#X connect 38 0 17 2;
#X connect 38 0 12 2;
#X connect 39 0 38 0;
#X connect 40 0 41 0;
#X connect 41 0 39 0;
#X connect 42 0 30 0;
#X connect 43 0 44 0;
#X connect 44 0 46 0;
#X connect 45 0 47 1;
#X connect 46 0 45 0;
#X connect 47 0 0 0;
#X connect 47 0 16 0;
#X connect 48 0 17 1;
#X connect 48 0 12 1;
#X connect 49 0 43 0;
#X restore 522 443 pd osc;
#N canvas 189 156 1087 715 osc 0;
#X obj 248 678 outlet~;
#X obj 26 269 tabosc4~ wave;
#X obj 219 23 inlet;
#X obj 216 210 +~;
#X obj 307 114 osc~ 5;
#X obj 352 265 *~ 1.0045;
#X obj 307 14 loadbang;
#X obj 307 38 random 1000;
#X obj 307 86 + 1;
#X obj 307 62 * 0.005;
#X obj 255 149 *~ 1;
#X obj 232 112 * 0.015;
#X obj 354 592 vcf~;
#X obj 352 295 tabosc4~ wave2;
#X obj 203 261 metro 50;
#X obj 352 319 *~ 0.6;
#X obj 173 677 outlet~;
#X obj 31 596 vcf~;
#X obj 87 488 +~ 1;
#X obj 87 512 *~ 0.5;
#X obj 87 536 *~ 1500;
#X obj 87 342 snapshot~;
#X obj 87 415 pack f 100;
#X obj 87 439 line;
#X obj 87 464 osc~;
#X obj 87 366 * 50;
#X obj 87 390 - 10;
#X obj 198 408 snapshot~;
#X obj 198 432 * 10000;
#X obj 175 535 line;
#X obj 175 511 pack f 100;
#X obj 198 384 receive~ cutoff;
#X obj 267 554 line;
#X obj 267 530 pack f 100;
#X obj 86 317 receive~ lfo;
#X obj 26 294 *~ 0.6;
#X obj 418 423 snapshot~;
#X obj 418 399 receive~ q;
#X obj 417 526 line;
#X obj 417 502 pack f 100;
#X obj 418 453 * 30;
#X obj 418 478 + 0.1;
#X obj 198 484 + 400;
#X obj 555 435 snapshot~;
#X obj 555 459 * 10000;
#X obj 555 510 line;
#X obj 555 486 pack f 100;
#X obj 252 632 lop~;
#X obj 85 569 +~ 20;
#X obj 555 411 receive~ lop;
#X connect 1 0 35 0;
#X connect 2 0 3 0;
#X connect 2 0 11 0;
#X connect 3 0 1 0;
#X connect 3 0 5 0;
#X connect 4 0 10 0;
#X connect 5 0 13 0;
#X connect 6 0 7 0;
#X connect 6 0 14 0;
#X connect 7 0 9 0;
#X connect 8 0 4 0;
#X connect 9 0 8 0;
#X connect 10 0 3 1;
#X connect 11 0 10 1;
#X connect 12 0 47 0;
#X connect 13 0 15 0;
#X connect 14 0 21 0;
#X connect 14 0 27 0;
#X connect 14 0 36 0;
#X connect 14 0 43 0;
#X connect 14 0 7 0;
#X connect 15 0 12 0;
#X connect 17 0 47 0;
#X connect 18 0 19 0;
#X connect 19 0 20 0;
#X connect 20 0 48 0;
#X connect 21 0 25 0;
#X connect 22 0 23 0;
#X connect 23 0 24 0;
#X connect 24 0 18 0;
#X connect 25 0 26 0;
#X connect 26 0 22 0;
#X connect 27 0 28 0;
#X connect 28 0 33 0;
#X connect 28 0 42 0;
#X connect 29 0 20 1;
#X connect 30 0 29 0;
#X connect 31 0 27 0;
#X connect 33 0 32 0;
#X connect 34 0 21 0;
#X connect 35 0 17 0;
#X connect 36 0 40 0;
#X connect 37 0 36 0;
#X connect 38 0 17 2;
#X connect 38 0 12 2;
#X connect 39 0 38 0;
#X connect 40 0 41 0;
#X connect 41 0 39 0;
#X connect 42 0 30 0;
#X connect 43 0 44 0;
#X connect 44 0 46 0;
#X connect 45 0 47 1;
#X connect 46 0 45 0;
#X connect 47 0 0 0;
#X connect 47 0 16 0;
#X connect 48 0 17 1;
#X connect 48 0 12 1;
#X connect 49 0 43 0;
#X restore 762 442 pd osc;
#N canvas 189 156 1087 715 osc 0;
#X obj 248 678 outlet~;
#X obj 26 269 tabosc4~ wave;
#X obj 219 23 inlet;
#X obj 216 210 +~;
#X obj 307 114 osc~ 5;
#X obj 352 265 *~ 1.0045;
#X obj 307 14 loadbang;
#X obj 307 38 random 1000;
#X obj 307 86 + 1;
#X obj 307 62 * 0.005;
#X obj 255 149 *~ 1;
#X obj 232 112 * 0.015;
#X obj 354 592 vcf~;
#X obj 352 295 tabosc4~ wave2;
#X obj 203 261 metro 50;
#X obj 352 319 *~ 0.6;
#X obj 173 677 outlet~;
#X obj 31 596 vcf~;
#X obj 87 488 +~ 1;
#X obj 87 512 *~ 0.5;
#X obj 87 536 *~ 1500;
#X obj 87 342 snapshot~;
#X obj 87 415 pack f 100;
#X obj 87 439 line;
#X obj 87 464 osc~;
#X obj 87 366 * 50;
#X obj 87 390 - 10;
#X obj 198 408 snapshot~;
#X obj 198 432 * 10000;
#X obj 175 535 line;
#X obj 175 511 pack f 100;
#X obj 198 384 receive~ cutoff;
#X obj 267 554 line;
#X obj 267 530 pack f 100;
#X obj 86 317 receive~ lfo;
#X obj 26 294 *~ 0.6;
#X obj 418 423 snapshot~;
#X obj 418 399 receive~ q;
#X obj 417 526 line;
#X obj 417 502 pack f 100;
#X obj 418 453 * 30;
#X obj 418 478 + 0.1;
#X obj 198 484 + 400;
#X obj 555 435 snapshot~;
#X obj 555 459 * 10000;
#X obj 555 510 line;
#X obj 555 486 pack f 100;
#X obj 252 632 lop~;
#X obj 85 569 +~ 20;
#X obj 555 411 receive~ lop;
#X connect 1 0 35 0;
#X connect 2 0 3 0;
#X connect 2 0 11 0;
#X connect 3 0 1 0;
#X connect 3 0 5 0;
#X connect 4 0 10 0;
#X connect 5 0 13 0;
#X connect 6 0 7 0;
#X connect 6 0 14 0;
#X connect 7 0 9 0;
#X connect 8 0 4 0;
#X connect 9 0 8 0;
#X connect 10 0 3 1;
#X connect 11 0 10 1;
#X connect 12 0 47 0;
#X connect 13 0 15 0;
#X connect 14 0 21 0;
#X connect 14 0 27 0;
#X connect 14 0 36 0;
#X connect 14 0 43 0;
#X connect 14 0 7 0;
#X connect 15 0 12 0;
#X connect 17 0 47 0;
#X connect 18 0 19 0;
#X connect 19 0 20 0;
#X connect 20 0 48 0;
#X connect 21 0 25 0;
#X connect 22 0 23 0;
#X connect 23 0 24 0;
#X connect 24 0 18 0;
#X connect 25 0 26 0;
#X connect 26 0 22 0;
#X connect 27 0 28 0;
#X connect 28 0 33 0;
#X connect 28 0 42 0;
#X connect 29 0 20 1;
#X connect 30 0 29 0;
#X connect 31 0 27 0;
#X connect 33 0 32 0;
#X connect 34 0 21 0;
#X connect 35 0 17 0;
#X connect 36 0 40 0;
#X connect 37 0 36 0;
#X connect 38 0 17 2;
#X connect 38 0 12 2;
#X connect 39 0 38 0;
#X connect 40 0 41 0;
#X connect 41 0 39 0;
#X connect 42 0 30 0;
#X connect 43 0 44 0;
#X connect 44 0 46 0;
#X connect 45 0 47 1;
#X connect 46 0 45 0;
#X connect 47 0 0 0;
#X connect 47 0 16 0;
#X connect 48 0 17 1;
#X connect 48 0 12 1;
#X connect 49 0 43 0;
#X restore 991 443 pd osc;
#N canvas 189 156 1087 715 osc 0;
#X obj 248 678 outlet~;
#X obj 26 269 tabosc4~ wave;
#X obj 219 23 inlet;
#X obj 216 210 +~;
#X obj 307 114 osc~ 5;
#X obj 352 265 *~ 1.0045;
#X obj 307 14 loadbang;
#X obj 307 38 random 1000;
#X obj 307 86 + 1;
#X obj 307 62 * 0.005;
#X obj 255 149 *~ 1;
#X obj 232 112 * 0.015;
#X obj 354 592 vcf~;
#X obj 352 295 tabosc4~ wave2;
#X obj 203 261 metro 50;
#X obj 352 319 *~ 0.6;
#X obj 173 677 outlet~;
#X obj 31 596 vcf~;
#X obj 87 488 +~ 1;
#X obj 87 512 *~ 0.5;
#X obj 87 536 *~ 1500;
#X obj 87 342 snapshot~;
#X obj 87 415 pack f 100;
#X obj 87 439 line;
#X obj 87 464 osc~;
#X obj 87 366 * 50;
#X obj 87 390 - 10;
#X obj 198 408 snapshot~;
#X obj 198 432 * 10000;
#X obj 175 535 line;
#X obj 175 511 pack f 100;
#X obj 198 384 receive~ cutoff;
#X obj 267 554 line;
#X obj 267 530 pack f 100;
#X obj 86 317 receive~ lfo;
#X obj 26 294 *~ 0.6;
#X obj 418 423 snapshot~;
#X obj 418 399 receive~ q;
#X obj 417 526 line;
#X obj 417 502 pack f 100;
#X obj 418 453 * 30;
#X obj 418 478 + 0.1;
#X obj 198 484 + 400;
#X obj 555 435 snapshot~;
#X obj 555 459 * 10000;
#X obj 555 510 line;
#X obj 555 486 pack f 100;
#X obj 252 632 lop~;
#X obj 85 569 +~ 20;
#X obj 555 411 receive~ lop;
#X connect 1 0 35 0;
#X connect 2 0 3 0;
#X connect 2 0 11 0;
#X connect 3 0 1 0;
#X connect 3 0 5 0;
#X connect 4 0 10 0;
#X connect 5 0 13 0;
#X connect 6 0 7 0;
#X connect 6 0 14 0;
#X connect 7 0 9 0;
#X connect 8 0 4 0;
#X connect 9 0 8 0;
#X connect 10 0 3 1;
#X connect 11 0 10 1;
#X connect 12 0 47 0;
#X connect 13 0 15 0;
#X connect 14 0 21 0;
#X connect 14 0 27 0;
#X connect 14 0 36 0;
#X connect 14 0 43 0;
#X connect 14 0 7 0;
#X connect 15 0 12 0;
#X connect 17 0 47 0;
#X connect 18 0 19 0;
#X connect 19 0 20 0;
#X connect 20 0 48 0;
#X connect 21 0 25 0;
#X connect 22 0 23 0;
#X connect 23 0 24 0;
#X connect 24 0 18 0;
#X connect 25 0 26 0;
#X connect 26 0 22 0;
#X connect 27 0 28 0;
#X connect 28 0 33 0;
#X connect 28 0 42 0;
#X connect 29 0 20 1;
#X connect 30 0 29 0;
#X connect 31 0 27 0;
#X connect 33 0 32 0;
#X connect 34 0 21 0;
#X connect 35 0 17 0;
#X connect 36 0 40 0;
#X connect 37 0 36 0;
#X connect 38 0 17 2;
#X connect 38 0 12 2;
#X connect 39 0 38 0;
#X connect 40 0 41 0;
#X connect 41 0 39 0;
#X connect 42 0 30 0;
#X connect 43 0 44 0;
#X connect 44 0 46 0;
#X connect 45 0 47 1;
#X connect 46 0 45 0;
#X connect 47 0 0 0;
#X connect 47 0 16 0;
#X connect 48 0 17 1;
#X connect 48 0 12 1;
#X connect 49 0 43 0;
#X restore 371 609 pd osc;
#N canvas 189 156 1087 715 osc 0;
#X obj 248 678 outlet~;
#X obj 26 269 tabosc4~ wave;
#X obj 219 23 inlet;
#X obj 216 210 +~;
#X obj 307 114 osc~ 5;
#X obj 352 265 *~ 1.0045;
#X obj 307 14 loadbang;
#X obj 307 38 random 1000;
#X obj 307 86 + 1;
#X obj 307 62 * 0.005;
#X obj 255 149 *~ 1;
#X obj 232 112 * 0.015;
#X obj 354 592 vcf~;
#X obj 352 295 tabosc4~ wave2;
#X obj 203 261 metro 50;
#X obj 352 319 *~ 0.6;
#X obj 173 677 outlet~;
#X obj 31 596 vcf~;
#X obj 87 488 +~ 1;
#X obj 87 512 *~ 0.5;
#X obj 87 536 *~ 1500;
#X obj 87 342 snapshot~;
#X obj 87 415 pack f 100;
#X obj 87 439 line;
#X obj 87 464 osc~;
#X obj 87 366 * 50;
#X obj 87 390 - 10;
#X obj 198 408 snapshot~;
#X obj 198 432 * 10000;
#X obj 175 535 line;
#X obj 175 511 pack f 100;
#X obj 198 384 receive~ cutoff;
#X obj 267 554 line;
#X obj 267 530 pack f 100;
#X obj 86 317 receive~ lfo;
#X obj 26 294 *~ 0.6;
#X obj 418 423 snapshot~;
#X obj 418 399 receive~ q;
#X obj 417 526 line;
#X obj 417 502 pack f 100;
#X obj 418 453 * 30;
#X obj 418 478 + 0.1;
#X obj 198 484 + 400;
#X obj 555 435 snapshot~;
#X obj 555 459 * 10000;
#X obj 555 510 line;
#X obj 555 486 pack f 100;
#X obj 252 632 lop~;
#X obj 85 569 +~ 20;
#X obj 555 411 receive~ lop;
#X connect 1 0 35 0;
#X connect 2 0 3 0;
#X connect 2 0 11 0;
#X connect 3 0 1 0;
#X connect 3 0 5 0;
#X connect 4 0 10 0;
#X connect 5 0 13 0;
#X connect 6 0 7 0;
#X connect 6 0 14 0;
#X connect 7 0 9 0;
#X connect 8 0 4 0;
#X connect 9 0 8 0;
#X connect 10 0 3 1;
#X connect 11 0 10 1;
#X connect 12 0 47 0;
#X connect 13 0 15 0;
#X connect 14 0 21 0;
#X connect 14 0 27 0;
#X connect 14 0 36 0;
#X connect 14 0 43 0;
#X connect 14 0 7 0;
#X connect 15 0 12 0;
#X connect 17 0 47 0;
#X connect 18 0 19 0;
#X connect 19 0 20 0;
#X connect 20 0 48 0;
#X connect 21 0 25 0;
#X connect 22 0 23 0;
#X connect 23 0 24 0;
#X connect 24 0 18 0;
#X connect 25 0 26 0;
#X connect 26 0 22 0;
#X connect 27 0 28 0;
#X connect 28 0 33 0;
#X connect 28 0 42 0;
#X connect 29 0 20 1;
#X connect 30 0 29 0;
#X connect 31 0 27 0;
#X connect 33 0 32 0;
#X connect 34 0 21 0;
#X connect 35 0 17 0;
#X connect 36 0 40 0;
#X connect 37 0 36 0;
#X connect 38 0 17 2;
#X connect 38 0 12 2;
#X connect 39 0 38 0;
#X connect 40 0 41 0;
#X connect 41 0 39 0;
#X connect 42 0 30 0;
#X connect 43 0 44 0;
#X connect 44 0 46 0;
#X connect 45 0 47 1;
#X connect 46 0 45 0;
#X connect 47 0 0 0;
#X connect 47 0 16 0;
#X connect 48 0 17 1;
#X connect 48 0 12 1;
#X connect 49 0 43 0;
#X restore 605 618 pd osc;
#N canvas 189 156 1087 715 osc 0;
#X obj 248 678 outlet~;
#X obj 26 269 tabosc4~ wave;
#X obj 219 23 inlet;
#X obj 216 210 +~;
#X obj 307 114 osc~ 5;
#X obj 352 265 *~ 1.0045;
#X obj 307 14 loadbang;
#X obj 307 38 random 1000;
#X obj 307 86 + 1;
#X obj 307 62 * 0.005;
#X obj 255 149 *~ 1;
#X obj 232 112 * 0.015;
#X obj 354 592 vcf~;
#X obj 352 295 tabosc4~ wave2;
#X obj 203 261 metro 50;
#X obj 352 319 *~ 0.6;
#X obj 173 677 outlet~;
#X obj 31 596 vcf~;
#X obj 87 488 +~ 1;
#X obj 87 512 *~ 0.5;
#X obj 87 536 *~ 1500;
#X obj 87 342 snapshot~;
#X obj 87 415 pack f 100;
#X obj 87 439 line;
#X obj 87 464 osc~;
#X obj 87 366 * 50;
#X obj 87 390 - 10;
#X obj 198 408 snapshot~;
#X obj 198 432 * 10000;
#X obj 175 535 line;
#X obj 175 511 pack f 100;
#X obj 198 384 receive~ cutoff;
#X obj 267 554 line;
#X obj 267 530 pack f 100;
#X obj 86 317 receive~ lfo;
#X obj 26 294 *~ 0.6;
#X obj 418 423 snapshot~;
#X obj 418 399 receive~ q;
#X obj 417 526 line;
#X obj 417 502 pack f 100;
#X obj 418 453 * 30;
#X obj 418 478 + 0.1;
#X obj 198 484 + 400;
#X obj 555 435 snapshot~;
#X obj 555 459 * 10000;
#X obj 555 510 line;
#X obj 555 486 pack f 100;
#X obj 252 632 lop~;
#X obj 85 569 +~ 20;
#X obj 555 411 receive~ lop;
#X connect 1 0 35 0;
#X connect 2 0 3 0;
#X connect 2 0 11 0;
#X connect 3 0 1 0;
#X connect 3 0 5 0;
#X connect 4 0 10 0;
#X connect 5 0 13 0;
#X connect 6 0 7 0;
#X connect 6 0 14 0;
#X connect 7 0 9 0;
#X connect 8 0 4 0;
#X connect 9 0 8 0;
#X connect 10 0 3 1;
#X connect 11 0 10 1;
#X connect 12 0 47 0;
#X connect 13 0 15 0;
#X connect 14 0 21 0;
#X connect 14 0 27 0;
#X connect 14 0 36 0;
#X connect 14 0 43 0;
#X connect 14 0 7 0;
#X connect 15 0 12 0;
#X connect 17 0 47 0;
#X connect 18 0 19 0;
#X connect 19 0 20 0;
#X connect 20 0 48 0;
#X connect 21 0 25 0;
#X connect 22 0 23 0;
#X connect 23 0 24 0;
#X connect 24 0 18 0;
#X connect 25 0 26 0;
#X connect 26 0 22 0;
#X connect 27 0 28 0;
#X connect 28 0 33 0;
#X connect 28 0 42 0;
#X connect 29 0 20 1;
#X connect 30 0 29 0;
#X connect 31 0 27 0;
#X connect 33 0 32 0;
#X connect 34 0 21 0;
#X connect 35 0 17 0;
#X connect 36 0 40 0;
#X connect 37 0 36 0;
#X connect 38 0 17 2;
#X connect 38 0 12 2;
#X connect 39 0 38 0;
#X connect 40 0 41 0;
#X connect 41 0 39 0;
#X connect 42 0 30 0;
#X connect 43 0 44 0;
#X connect 44 0 46 0;
#X connect 45 0 47 1;
#X connect 46 0 45 0;
#X connect 47 0 0 0;
#X connect 47 0 16 0;
#X connect 48 0 17 1;
#X connect 48 0 12 1;
#X connect 49 0 43 0;
#X restore 882 612 pd osc;
#N canvas 189 156 1087 715 osc 0;
#X obj 248 678 outlet~;
#X obj 26 269 tabosc4~ wave;
#X obj 219 23 inlet;
#X obj 216 210 +~;
#X obj 307 114 osc~ 5;
#X obj 352 265 *~ 1.0045;
#X obj 307 14 loadbang;
#X obj 307 38 random 1000;
#X obj 307 86 + 1;
#X obj 307 62 * 0.005;
#X obj 255 149 *~ 1;
#X obj 232 112 * 0.015;
#X obj 354 592 vcf~;
#X obj 352 295 tabosc4~ wave2;
#X obj 203 261 metro 50;
#X obj 352 319 *~ 0.6;
#X obj 173 677 outlet~;
#X obj 31 596 vcf~;
#X obj 87 488 +~ 1;
#X obj 87 512 *~ 0.5;
#X obj 87 536 *~ 1500;
#X obj 87 342 snapshot~;
#X obj 87 415 pack f 100;
#X obj 87 439 line;
#X obj 87 464 osc~;
#X obj 87 366 * 50;
#X obj 87 390 - 10;
#X obj 198 408 snapshot~;
#X obj 198 432 * 10000;
#X obj 175 535 line;
#X obj 175 511 pack f 100;
#X obj 198 384 receive~ cutoff;
#X obj 267 554 line;
#X obj 267 530 pack f 100;
#X obj 86 317 receive~ lfo;
#X obj 26 294 *~ 0.6;
#X obj 418 423 snapshot~;
#X obj 418 399 receive~ q;
#X obj 417 526 line;
#X obj 417 502 pack f 100;
#X obj 418 453 * 30;
#X obj 418 478 + 0.1;
#X obj 198 484 + 400;
#X obj 555 435 snapshot~;
#X obj 555 459 * 10000;
#X obj 555 510 line;
#X obj 555 486 pack f 100;
#X obj 252 632 lop~;
#X obj 85 569 +~ 20;
#X obj 555 411 receive~ lop;
#X connect 1 0 35 0;
#X connect 2 0 3 0;
#X connect 2 0 11 0;
#X connect 3 0 1 0;
#X connect 3 0 5 0;
#X connect 4 0 10 0;
#X connect 5 0 13 0;
#X connect 6 0 7 0;
#X connect 6 0 14 0;
#X connect 7 0 9 0;
#X connect 8 0 4 0;
#X connect 9 0 8 0;
#X connect 10 0 3 1;
#X connect 11 0 10 1;
#X connect 12 0 47 0;
#X connect 13 0 15 0;
#X connect 14 0 21 0;
#X connect 14 0 27 0;
#X connect 14 0 36 0;
#X connect 14 0 43 0;
#X connect 14 0 7 0;
#X connect 15 0 12 0;
#X connect 17 0 47 0;
#X connect 18 0 19 0;
#X connect 19 0 20 0;
#X connect 20 0 48 0;
#X connect 21 0 25 0;
#X connect 22 0 23 0;
#X connect 23 0 24 0;
#X connect 24 0 18 0;
#X connect 25 0 26 0;
#X connect 26 0 22 0;
#X connect 27 0 28 0;
#X connect 28 0 33 0;
#X connect 28 0 42 0;
#X connect 29 0 20 1;
#X connect 30 0 29 0;
#X connect 31 0 27 0;
#X connect 33 0 32 0;
#X connect 34 0 21 0;
#X connect 35 0 17 0;
#X connect 36 0 40 0;
#X connect 37 0 36 0;
#X connect 38 0 17 2;
#X connect 38 0 12 2;
#X connect 39 0 38 0;
#X connect 40 0 41 0;
#X connect 41 0 39 0;
#X connect 42 0 30 0;
#X connect 43 0 44 0;
#X connect 44 0 46 0;
#X connect 45 0 47 1;
#X connect 46 0 45 0;
#X connect 47 0 0 0;
#X connect 47 0 16 0;
#X connect 48 0 17 1;
#X connect 48 0 12 1;
#X connect 49 0 43 0;
#X restore 1028 654 pd osc;
#X connect 0 0 89 0;
#X connect 2 0 169 0;
#X connect 4 0 2 0;
#X connect 5 0 2 0;
#X connect 6 0 2 0;
#X connect 7 0 2 0;
#X connect 8 0 2 0;
#X connect 9 0 170 0;
#X connect 10 0 19 0;
#X connect 10 1 20 0;
#X connect 10 2 21 0;
#X connect 10 3 119 0;
#X connect 10 4 22 0;
#X connect 10 5 152 1;
#X connect 10 5 151 1;
#X connect 11 0 171 0;
#X connect 12 0 23 0;
#X connect 12 1 24 0;
#X connect 12 2 25 0;
#X connect 12 3 26 0;
#X connect 12 4 27 0;
#X connect 12 5 154 1;
#X connect 12 5 153 1;
#X connect 13 0 173 0;
#X connect 14 0 33 0;
#X connect 14 1 34 0;
#X connect 14 2 35 0;
#X connect 14 3 36 0;
#X connect 14 4 37 0;
#X connect 14 5 158 1;
#X connect 14 5 157 1;
#X connect 16 0 93 0;
#X connect 17 0 94 0;
#X connect 18 0 28 0;
#X connect 18 1 29 0;
#X connect 18 2 30 0;
#X connect 18 3 31 0;
#X connect 18 4 32 0;
#X connect 18 5 16 1;
#X connect 18 5 147 1;
#X connect 19 0 9 0;
#X connect 20 0 9 0;
#X connect 21 0 9 0;
#X connect 22 0 9 0;
#X connect 23 0 11 0;
#X connect 24 0 11 0;
#X connect 25 0 11 0;
#X connect 26 0 11 0;
#X connect 27 0 11 0;
#X connect 28 0 17 0;
#X connect 29 0 17 0;
#X connect 30 0 17 0;
#X connect 31 0 17 0;
#X connect 32 0 17 0;
#X connect 33 0 13 0;
#X connect 34 0 13 0;
#X connect 35 0 13 0;
#X connect 36 0 13 0;
#X connect 37 0 13 0;
#X connect 39 0 93 1;
#X connect 39 0 148 1;
#X connect 40 0 45 0;
#X connect 41 0 45 0;
#X connect 42 0 45 0;
#X connect 43 0 45 0;
#X connect 44 0 45 0;
#X connect 45 0 172 0;
#X connect 46 0 40 0;
#X connect 46 1 41 0;
#X connect 46 2 42 0;
#X connect 46 3 43 0;
#X connect 46 4 44 0;
#X connect 46 5 156 1;
#X connect 46 5 155 1;
#X connect 48 0 50 0;
#X connect 49 0 123 0;
#X connect 50 0 67 0;
#X connect 50 0 90 0;
#X connect 51 0 58 0;
#X connect 52 0 54 0;
#X connect 52 0 66 0;
#X connect 53 0 55 1;
#X connect 54 0 52 1;
#X connect 56 0 122 0;
#X connect 58 0 121 0;
#X connect 59 0 60 0;
#X connect 60 0 61 0;
#X connect 61 0 63 0;
#X connect 62 0 59 0;
#X connect 63 0 121 0;
#X connect 64 0 55 0;
#X connect 65 0 64 0;
#X connect 66 0 53 0;
#X connect 67 0 52 0;
#X connect 67 0 64 0;
#X connect 68 0 174 0;
#X connect 69 0 74 0;
#X connect 69 1 77 0;
#X connect 69 2 78 0;
#X connect 69 3 79 0;
#X connect 69 4 80 0;
#X connect 69 5 160 1;
#X connect 69 5 159 1;
#X connect 70 0 175 0;
#X connect 71 0 75 0;
#X connect 71 1 81 0;
#X connect 71 2 82 0;
#X connect 71 3 83 0;
#X connect 71 4 84 0;
#X connect 71 5 162 1;
#X connect 71 5 161 1;
#X connect 72 0 176 0;
#X connect 73 0 76 0;
#X connect 73 1 85 0;
#X connect 73 2 86 0;
#X connect 73 3 87 0;
#X connect 73 4 88 0;
#X connect 73 5 163 1;
#X connect 73 5 164 1;
#X connect 74 0 68 0;
#X connect 75 0 70 0;
#X connect 76 0 72 0;
#X connect 77 0 68 0;
#X connect 78 0 68 0;
#X connect 79 0 68 0;
#X connect 80 0 68 0;
#X connect 81 0 70 0;
#X connect 82 0 70 0;
#X connect 83 0 70 0;
#X connect 84 0 70 0;
#X connect 85 0 72 0;
#X connect 86 0 72 0;
#X connect 87 0 72 0;
#X connect 88 0 72 0;
#X connect 89 0 1 0;
#X connect 90 0 56 0;
#X connect 90 0 62 0;
#X connect 91 0 115 0;
#X connect 92 0 4 0;
#X connect 92 1 5 0;
#X connect 92 2 6 0;
#X connect 92 3 7 0;
#X connect 92 4 8 0;
#X connect 92 5 150 1;
#X connect 92 5 149 1;
#X connect 93 0 15 1;
#X connect 94 0 147 0;
#X connect 94 1 16 0;
#X connect 95 0 111 0;
#X connect 96 0 18 0;
#X connect 97 0 92 0;
#X connect 98 0 10 0;
#X connect 99 0 12 0;
#X connect 100 0 46 0;
#X connect 101 0 14 0;
#X connect 102 0 99 0;
#X connect 103 0 100 0;
#X connect 104 0 101 0;
#X connect 105 0 69 0;
#X connect 106 0 71 0;
#X connect 107 0 73 0;
#X connect 108 0 105 0;
#X connect 109 0 106 0;
#X connect 110 0 107 0;
#X connect 111 0 116 0;
#X connect 111 1 117 0;
#X connect 111 2 118 0;
#X connect 111 3 102 0;
#X connect 111 4 103 0;
#X connect 111 5 104 0;
#X connect 111 6 108 0;
#X connect 111 7 109 0;
#X connect 111 8 110 0;
#X connect 112 0 38 0;
#X connect 113 0 3 0;
#X connect 114 0 49 0;
#X connect 116 0 96 0;
#X connect 117 0 97 0;
#X connect 118 0 98 0;
#X connect 119 0 9 0;
#X connect 120 0 51 0;
#X connect 121 0 65 0;
#X connect 122 0 120 0;
#X connect 124 0 125 0;
#X connect 125 0 140 0;
#X connect 125 0 141 0;
#X connect 126 0 131 0;
#X connect 127 0 129 0;
#X connect 127 0 139 0;
#X connect 128 0 145 1;
#X connect 129 0 127 1;
#X connect 130 0 144 0;
#X connect 131 0 143 0;
#X connect 132 0 133 0;
#X connect 133 0 134 0;
#X connect 134 0 136 0;
#X connect 135 0 132 0;
#X connect 136 0 143 0;
#X connect 137 0 145 0;
#X connect 138 0 137 0;
#X connect 139 0 128 0;
#X connect 140 0 127 0;
#X connect 140 0 137 0;
#X connect 141 0 130 0;
#X connect 141 0 135 0;
#X connect 142 0 126 0;
#X connect 143 0 138 0;
#X connect 144 0 142 0;
#X connect 147 0 148 0;
#X connect 148 0 15 0;
#X connect 149 0 93 0;
#X connect 150 0 148 0;
#X connect 151 0 93 0;
#X connect 152 0 148 0;
#X connect 153 0 93 0;
#X connect 154 0 148 0;
#X connect 155 0 93 0;
#X connect 156 0 148 0;
#X connect 157 0 93 0;
#X connect 158 0 148 0;
#X connect 159 0 93 0;
#X connect 160 0 148 0;
#X connect 161 0 93 0;
#X connect 162 0 148 0;
#X connect 163 0 93 0;
#X connect 164 0 148 0;
#X connect 165 0 166 0;
#X connect 167 0 168 0;
#X connect 169 0 150 0;
#X connect 169 1 149 0;
#X connect 170 0 152 0;
#X connect 170 1 151 0;
#X connect 171 0 154 0;
#X connect 171 1 153 0;
#X connect 172 0 156 0;
#X connect 172 1 155 0;
#X connect 173 0 158 0;
#X connect 173 1 157 0;
#X connect 174 0 160 0;
#X connect 174 1 159 0;
#X connect 175 0 162 0;
#X connect 175 1 161 0;
#X connect 176 0 164 0;
#X connect 176 1 163 0;
